<svg xmlns="http://www.w3.org/2000/svg" viewBox="0 0 256 256" width="256" height="256">
  <defs>
    <radialGradient id="rbBg" cx="50%" cy="42%" r="65%">
      <stop offset="0%" stop-color="#ffffff"/>
      <stop offset="55%" stop-color="#a9edf7"/>
      <stop offset="100%" stop-color="#7fe3f2"/>
    </radialGradient>
    <linearGradient id="rbWing" x1="0" y1="0" x2="1" y2="1">
      <stop offset="0%" stop-color="#2fb6d9"/>
      <stop offset="100%" stop-color="#17255a"/>
    </linearGradient>
  </defs>
  <rect width="256" height="256" rx="128" fill="url(#rbBg)"/>
  <!-- antennae -->
  <path d="M128 120 C118 96 108 84 96 78" fill="none" stroke="#17255a" stroke-width="4" stroke-linecap="round"/>
  <path d="M128 120 C138 96 148 84 160 78" fill="none" stroke="#17255a" stroke-width="4" stroke-linecap="round"/>
  <circle cx="95" cy="77" r="4" fill="#17255a"/>
  <circle cx="161" cy="77" r="4" fill="#17255a"/>
  <!-- wings -->
  <ellipse cx="98" cy="118" rx="30" ry="40" fill="url(#rbWing)" transform="rotate(-18 98 118)"/>
  <ellipse cx="158" cy="118" rx="30" ry="40" fill="url(#rbWing)" transform="rotate(18 158 118)"/>
  <ellipse cx="104" cy="166" rx="22" ry="30" fill="#2fb6d9" transform="rotate(-12 104 166)"/>
  <ellipse cx="152" cy="166" rx="22" ry="30" fill="#2fb6d9" transform="rotate(12 152 166)"/>
  <!-- wing dots -->
  <circle cx="92" cy="108" r="5" fill="#eafbff"/>
  <circle cx="164" cy="108" r="5" fill="#eafbff"/>
  <!-- body -->
  <rect x="124" y="104" width="8" height="74" rx="4" fill="#17255a"/>
</svg>
